<?xml version="1.0" encoding="UTF-8" standalone="no"?>
<!-- Created with Inkscape (http://www.inkscape.org/) -->

<svg
   xmlns:dc="http://purl.org/dc/elements/1.1/"
   xmlns:cc="http://creativecommons.org/ns#"
   xmlns:rdf="http://www.w3.org/1999/02/22-rdf-syntax-ns#"
   xmlns:svg="http://www.w3.org/2000/svg"
   xmlns="http://www.w3.org/2000/svg"
   xmlns:xlink="http://www.w3.org/1999/xlink"
   xmlns:sodipodi="http://sodipodi.sourceforge.net/DTD/sodipodi-0.dtd"
   xmlns:inkscape="http://www.inkscape.org/namespaces/inkscape"
   width="210mm"
   height="297mm"
   viewBox="0 0 744.09448819 1052.3622047"
   id="svg2"
   version="1.1"
   inkscape:version="0.91 r13725"
   sodipodi:docname="AppIcon.svg"
   inkscape:export-filename="C:\Users\Euphemism\Documents\1My Stuff\NCSU\CSC-492 Senior Design\App Icon\AppIcon iPhone 6.png"
   inkscape:export-xdpi="8.9693413"
   inkscape:export-ydpi="8.9693413">
  <defs
     id="defs4">
    <inkscape:path-effect
       effect="spiro"
       id="path-effect4853"
       is_visible="true" />
    <linearGradient
       inkscape:collect="always"
       id="linearGradient4756">
      <stop
         style="stop-color:#666666;stop-opacity:1;"
         offset="0"
         id="stop4758" />
      <stop
         style="stop-color:#666666;stop-opacity:0;"
         offset="1"
         id="stop4760" />
    </linearGradient>
    <linearGradient
       inkscape:collect="always"
       id="linearGradient4733">
      <stop
         style="stop-color:#ffffff;stop-opacity:1;"
         offset="0"
         id="stop4735" />
      <stop
         style="stop-color:#ffffff;stop-opacity:0;"
         offset="1"
         id="stop4737" />
    </linearGradient>
    <filter
       inkscape:label="Stained Glass"
       inkscape:menu="Bevels"
       inkscape:menu-tooltip="Illuminated stained glass effect"
       height="1.5"
       width="1.5"
       y="-0.25"
       x="-0.25"
       style="color-interpolation-filters:sRGB;"
       id="filter4507">
      <feBlend
         in2="SourceGraphic"
         result="result1"
         mode="screen"
         id="feBlend4509" />
      <feGaussianBlur
         stdDeviation="7"
         result="result6"
         id="feGaussianBlur4511" />
      <feComposite
         operator="xor"
         in="result6"
         in2="result6"
         result="result7"
         id="feComposite4513" />
      <feComposite
         in2="result1"
         operator="atop"
         in="result6"
         result="result92"
         id="feComposite4515" />
      <feComposite
         result="result4"
         in="result7"
         operator="xor"
         in2="result92"
         id="feComposite4517" />
      <feGaussianBlur
         result="result3"
         stdDeviation="0.7"
         in="result4"
         id="feGaussianBlur4519" />
      <feSpecularLighting
         result="result5"
         specularExponent="50"
         specularConstant="1.5"
         surfaceScale="4"
         id="feSpecularLighting4521">
        <fePointLight
           z="20000"
           y="-8000"
           x="-5000"
           id="fePointLight4523" />
      </feSpecularLighting>
      <feComposite
         in="result3"
         k3="1"
         k2="1"
         operator="arithmetic"
         in2="SourceGraphic"
         result="result93"
         id="feComposite4525" />
      <feComposite
         in="result5"
         operator="atop"
         in2="result93"
         result="result94"
         id="feComposite4527" />
      <feBlend
         mode="multiply"
         in2="result94"
         id="feBlend4529" />
    </filter>
    <linearGradient
       inkscape:collect="always"
       xlink:href="#linearGradient4733"
       id="linearGradient4739"
       x1="88.893425"
       y1="-818.44031"
       x2="464.67017"
       y2="-285.07977"
       gradientUnits="userSpaceOnUse" />
    <linearGradient
       inkscape:collect="always"
       xlink:href="#linearGradient4756"
       id="linearGradient4762"
       x1="218.37706"
       y1="-455.2225"
       x2="232.18736"
       y2="-246.11096"
       gradientUnits="userSpaceOnUse"
       gradientTransform="matrix(0.85511648,0,0,0.85511648,127.62596,82.111902)" />
    <radialGradient
       inkscape:collect="always"
       xlink:href="#linearGradient4733"
       id="radialGradient4833"
       cx="419.30182"
       cy="-468.73029"
       fx="419.30182"
       fy="-468.73029"
       r="225.54998"
       gradientTransform="matrix(-1.0449526,-1.0360783,1.0129219,-1.0216143,1462.6637,-437.64501)"
       gradientUnits="userSpaceOnUse" />
    <radialGradient
       inkscape:collect="always"
       xlink:href="#linearGradient4733"
       id="radialGradient4860"
       gradientUnits="userSpaceOnUse"
       gradientTransform="matrix(-1.323354,-1.3121154,1.2827896,-1.2937978,1627.5717,-542.17504)"
       cx="419.30182"
       cy="-468.73029"
       fx="419.30182"
       fy="-468.73029"
       r="225.54998" />
  </defs>
  <sodipodi:namedview
     id="base"
     pagecolor="#ffffff"
     bordercolor="#666666"
     borderopacity="1.0"
     inkscape:pageopacity="0.0"
     inkscape:pageshadow="2"
     inkscape:zoom="0.40305086"
     inkscape:cx="769.95047"
     inkscape:cy="1433.7924"
     inkscape:document-units="px"
     inkscape:current-layer="layer4"
     showgrid="false"
     inkscape:window-width="1292"
     inkscape:window-height="746"
     inkscape:window-x="-8"
     inkscape:window-y="-8"
     inkscape:window-maximized="1" />
  <metadata
     id="metadata7">
    <rdf:RDF>
      <cc:Work
         rdf:about="">
        <dc:format>image/svg+xml</dc:format>
        <dc:type
           rdf:resource="http://purl.org/dc/dcmitype/StillImage" />
      </cc:Work>
    </rdf:RDF>
  </metadata>
  <g
     inkscape:label="Concept Art"
     inkscape:groupmode="layer"
     id="layer1"
     style="display:none">
    <image
       sodipodi:absref="C:\Users\Euphemism\Documents\1My Stuff\NCSU\CSC-492 Senior Design\Concept Art\Reference\App Icon and Title.jpg"
       y="-3460.3572"
       x="-1759.0665"
       id="image3346"
       xlink:href="file:///C:/Users/Euphemism/Documents/1My%20Stuff/NCSU/CSC-492%20Senior%20Design/Concept%20Art/Reference/App%20Icon%20and%20Title.jpg"
       style="fill:none;stroke:#ffffff;image-rendering:optimizeSpeed"
       preserveAspectRatio="none"
       height="3735"
       width="6640"
       transform="matrix(0,1,-1,0,0,0)" />
    <ellipse
       style="opacity:0.01000001;fill:#f9f9f9;fill-opacity:1;stroke:#0000ff"
       id="path3366"
       cx="678.57141"
       cy="-150.49493"
       rx="564.28571"
       ry="548.57141" />
  </g>
  <g
     inkscape:groupmode="layer"
     id="layer2"
     inkscape:label="AppBase"
     style="display:inline">
    <path
       style="opacity:0.01000001;fill:#91c788;fill-opacity:1;stroke:#0000ff"
       id="path3354"
       d="m 68.072647,-776.30738 c 10.470757,-3.76626 20.178336,-9.20131 30.087802,-14.15419 27.368601,-13.6792 -6.171346,4.26976 23.781231,-12.07158 26.425,-14.75416 53.41305,-28.38252 80.75365,-41.34184 22.25745,-9.63244 45.65819,-16.08295 69.20372,-21.64103 16.08886,-3.79381 32.61918,-4.97181 48.8858,-7.68875 12.652,-2.60144 25.18654,-5.78832 37.96517,-7.73081 10.13192,-1.48411 20.38865,-1.6993 30.61036,-1.79161 10.51044,-0.063 21.02094,0.0719 31.5317,0.0478 11.14907,-0.0183 22.29775,0.0683 33.44674,0.0827 11.31417,0.0137 22.62828,-0.0121 33.9422,-0.0841 11.25229,0.73883 22.30647,3.09812 33.24371,5.74115 13.87886,2.55182 27.71031,5.29517 41.52965,8.14823 11.55481,2.32832 23.32946,2.89602 35.07823,3.22249 12.75678,0.3616 25.46362,1.68076 38.20755,2.39318 18.34128,0.78336 36.70011,0.92248 55.05539,0.91732 18.67307,0.17503 37.40198,0.89155 56.01692,2.45295 17.93951,2.61633 35.76528,5.71691 53.83265,7.38275 16.25695,1.31494 32.28795,4.34142 48.55277,5.76853 14.57097,0.83636 29.22031,1.74255 43.80522,0.85017 13.85454,-1.03098 27.61167,-2.86349 41.47203,-3.85072 19.20517,-0.86648 38.46016,-1.36837 57.68085,-0.82205 19.90061,1.15694 39.81481,1.90086 59.74561,2.25837 22.9431,0.27418 45.7859,3.11475 68.5908,5.46365 13.6939,1.82343 28.4397,1.54222 41.1973,7.43397 8.8277,4.36447 17.1073,9.34438 24.7824,15.5124 9.2032,8.1277 12.4696,20.16996 15.3091,31.67822 3.7623,20.56978 3.4481,41.61389 3.6187,62.44644 -0.024,30.21365 -0.2312,60.42566 -0.2469,90.6396 0,27.92146 0.1627,55.84243 0.4115,83.76268 0.3722,20.23005 2.641,40.36634 5.5707,60.36672 1.0648,12.817 3.4603,25.34012 6.5045,37.80823 2.0563,6.76126 2.0367,13.93618 4.0801,20.67345 0.9792,2.96978 2.0463,5.87331 3.2872,8.74223 0,0 -36.4503,20.61481 -36.4503,20.61481 l 0,0 c -1.4699,-2.98276 -2.6526,-5.96066 -3.6341,-9.14221 -2.3236,-6.89351 -2.1529,-14.17773 -3.8031,-21.24791 -2.6471,-12.76934 -5.0801,-25.50719 -5.8663,-38.56295 -2.4481,-20.3586 -4.4494,-40.8199 -4.8648,-61.33068 0.266,-28.07974 0.4647,-56.16009 0.5222,-84.24109 0.042,-30.06051 0.016,-60.12173 -0.5207,-90.17842 -0.4425,-20.33073 -0.5885,-40.86482 -4.5751,-60.88035 -2.7908,-10.60351 -5.7722,-21.73526 -14.5291,-29.04086 -7.4517,-5.90077 -15.5823,-10.64695 -24.2656,-14.53567 -12.3598,-4.95357 -25.886,-5.73987 -38.9589,-7.4839 -22.7118,-2.55794 -45.5188,-5.12882 -68.398,-5.16664 -20.047,-0.38088 -40.09678,-0.84476 -60.1148,-2.04524 -19.25545,-0.58422 -38.53804,0.084 -57.75294,1.41929 -13.96928,1.2283 -27.8569,3.30129 -41.87323,3.96424 -14.59659,0.3838 -29.19022,-0.48921 -43.74401,-1.57294 -16.22822,-1.54543 -32.24492,-4.51993 -48.49042,-5.84921 -17.98878,-1.89821 -35.73938,-5.31934 -53.70593,-7.36618 -18.49832,-1.30244 -37.03995,-2.40323 -55.58934,-2.39389 -18.62222,-0.1139 -37.25419,0.0717 -55.86783,-0.56094 -12.81963,-0.54637 -25.5765,-2.13534 -38.41706,-2.16227 -11.87734,-0.46054 -23.75939,-1.24793 -35.38877,-3.88292 -13.77058,-2.96564 -27.55307,-5.84223 -41.43055,-8.28207 -10.92683,-2.26902 -21.96849,-4.35951 -33.15306,-4.68949 -11.23556,-0.0726 -22.4713,-0.0969 -33.7071,-0.0883 -11.20143,0.008 -22.40272,0.0854 -33.60414,0.0236 -10.52954,-0.0642 -21.05904,-0.0239 -31.58823,0.0781 -10.03988,0.20395 -20.1013,0.51916 -30.03704,2.11127 -12.6465,2.14351 -25.09042,5.27619 -37.72362,7.4986 -16.09903,2.15161 -32.2835,3.89661 -48.14139,7.53824 -23.01208,5.3669 -45.90439,11.59038 -67.49726,21.37258 -27.34503,12.97017 -54.23148,26.84203 -80.684097,41.55195 -18.518105,9.95747 -37.270321,19.49643 -56.53043,27.94857 0,0 32.850694,-26.03364 32.850694,-26.03364 z"
       inkscape:connector-curvature="0" />
    <rect
       style="opacity:1;fill:#000000;fill-opacity:1;stroke:none;filter:url(#filter4507)"
       id="rect3345"
       width="1204.1018"
       height="1204.1018"
       x="68.690376"
       y="-850.7652"
       ry="137.38075" />
    <rect
       ry="137.38075"
       y="-850.7652"
       x="68.690376"
       height="1204.1018"
       width="1204.1018"
       id="rect4691"
       style="opacity:1;fill:url(#linearGradient4739);fill-opacity:1;stroke:none" />
  </g>
  <g
     inkscape:groupmode="layer"
     id="layer3"
     inkscape:label="Paddle"
     style="display:inline">
    <rect
       style="opacity:1;fill:#1a1a1a;fill-opacity:1;stroke:none"
       id="rect4742"
       width="872.89124"
       height="608.47534"
       x="213.94579"
       y="-316.45084"
       ry="108.31518"
       transform="matrix(0.86411695,-0.50329106,0.50329106,0.86411695,0,0)" />
    <rect
       transform="matrix(0.86411695,-0.50329106,0.50329106,0.86411695,0,0)"
       ry="108.31518"
       y="-316.45084"
       x="213.94579"
       height="608.47534"
       width="872.89124"
       id="rect4746"
       style="opacity:1;fill:url(#linearGradient4762);fill-opacity:1;stroke:none" />
    <rect
       transform="matrix(0.86586776,-0.50027294,0.49878115,0.86672797,0,0)"
       ry="110.25855"
       y="-337.58392"
       x="287.49554"
       height="619.3924"
       width="796.95886"
       id="rect4744"
       style="opacity:1;fill:#333333;fill-opacity:1;stroke:none" />
    <rect
       transform="matrix(0.8626214,-0.5058501,0.48606619,0.873922,0,0)"
       ry="94.306656"
       y="-280.85687"
       x="355.49838"
       height="529.78052"
       width="679.73718"
       id="rect4766"
       style="opacity:1;fill:#1a1a1a;fill-opacity:1;stroke:none" />
    <rect
       style="opacity:1;fill:#0058ff;fill-opacity:0.67256637;stroke:none"
       id="rect4764"
       width="648.45105"
       height="508.47989"
       x="356.93707"
       y="-259.08047"
       ry="90.514908"
       transform="matrix(0.85995746,-0.51036572,0.48162669,0.87637648,0,0)" />
    <rect
       style="opacity:1;fill:#ffffff;fill-opacity:1;stroke:none"
       id="rect4768"
       width="22.295008"
       height="509.2966"
       x="656.41174"
       y="-270.50061"
       ry="0.71676403"
       transform="matrix(0.86858911,-0.49553301,0.52118615,0.85344303,0,0)" />
    <rect
       transform="matrix(0.86858911,-0.49553301,0.52118615,0.85344303,0,0)"
       ry="0.71676403"
       y="-270.75119"
       x="708.27533"
       height="509.2966"
       width="22.295008"
       id="rect4770"
       style="opacity:1;fill:#ffffff;fill-opacity:1;stroke:none" />
    <rect
       transform="matrix(0.50010927,0.86596231,-0.85769445,0.51415974,0,0)"
       ry="0.91539365"
       y="-1004.7092"
       x="24.362209"
       height="650.4328"
       width="30.748171"
       id="rect4772"
       style="opacity:1;fill:#ffffff;fill-opacity:1;stroke:none" />
    <rect
       style="opacity:1;fill:#ffffff;fill-opacity:1;stroke:none"
       id="rect4774"
       width="30.748171"
       height="650.4328"
       x="-42.01479"
       y="-1007.1564"
       ry="0.91539365"
       transform="matrix(0.50010927,0.86596231,-0.85769445,0.51415974,0,0)" />
    <circle
       cy="-351.94028"
       cx="594.70361"
       id="circle4794"
       style="opacity:1;fill:#004ac9;fill-opacity:1;stroke:none;stroke-width:20;stroke-miterlimit:4;stroke-dasharray:none"
       r="90.698799" />
    <circle
       style="opacity:1;fill:none;fill-opacity:1;stroke:#ffffff;stroke-width:17.10232925;stroke-miterlimit:4;stroke-dasharray:none"
       id="path4784"
       cx="594.70361"
       cy="-351.94028"
       r="99.336769" />
    <rect
       style="opacity:1;fill:#00327c;fill-opacity:1;stroke:none"
       id="rect4796"
       width="32.946938"
       height="511.43292"
       x="676.21033"
       y="-273.29712"
       ry="0.71676403"
       transform="matrix(0.86858911,-0.49553301,0.52118615,0.85344303,0,0)" />
    <rect
       transform="matrix(0.50010927,0.86596231,-0.85769445,0.51415974,0,0)"
       ry="0.91539365"
       y="-1007.6558"
       x="-12.093949"
       height="651.78748"
       width="42.070724"
       id="rect4798"
       style="opacity:1;fill:#00327c;fill-opacity:1;stroke:none" />
  </g>
  <g
     inkscape:groupmode="layer"
     id="layer4"
     inkscape:label="Whoosh"
     style="display:inline">
    <path
       sodipodi:type="star"
       style="opacity:1;fill:url(#radialGradient4833);fill-opacity:1;stroke:none;stroke-width:20;stroke-miterlimit:4;stroke-dasharray:none"
       id="path4801"
       sodipodi:sides="7"
       sodipodi:cx="549.72595"
       sodipodi:cy="-383.41736"
       sodipodi:r1="183.13304"
       sodipodi:r2="98.093437"
       sodipodi:arg1="0.60283831"
       sodipodi:arg2="0.81916847"
       inkscape:flatsided="false"
       inkscape:rounded="0"
       inkscape:randomized="0"
       d="m 700.57807,-279.58408 -83.87108,-32.16834 -54.1064,111.01499 -27.14255,-85.62969 -120.5298,26.91462 50.02488,-74.61012 -96.1918,-77.45301 89.52255,-7.40762 0.58059,-123.49694 61.60791,65.37297 96.91579,-76.54516 -12.69874,88.92639 120.27141,28.04669 -77.44298,45.51641 z"
       inkscape:transform-center-x="2.8648983"
       inkscape:transform-center-y="6.2524371" />
    <path
       style="fill:#ffffff;fill-opacity:0.6504425;fill-rule:evenodd;stroke:none;stroke-width:1px;stroke-linecap:butt;stroke-linejoin:miter;stroke-opacity:1"
       d="m 504.76177,-376.21766 c 38.1641,-73.24226 96.29561,-135.95538 166.43792,-179.55565 45.51058,-28.28925 96.24128,-48.67894 149.19138,-56.91188 52.95011,-8.23294 108.13575,-4.06592 158.32244,14.7168 45.84969,17.15957 86.78979,46.15957 120.84989,81.32422 34.0601,35.16464 61.4333,76.40549 83.9031,119.89978 41.8846,81.07505 67.1973,171.36879 67.9115,262.62103 0.7143,91.252251 -23.8164,183.34579 -74.529,259.21223 -50.7126,75.86644 -128.1576,134.57944 -216.42786,157.72758 -88.27031,23.14814 -186.68566,9.15443 -262.17303,-42.1207 C 627.76122,192.81722 579.49104,113.25983 570.4421,28.531597 c -9.04893,-84.728231 21.56716,-173.032827 81.73611,-233.369007 17.13545,-17.18307 36.39545,-32.08781 54.3152,-48.4513 17.91975,-16.36349 34.74228,-34.53802 45.45896,-56.31035 5.35834,-10.88616 9.12785,-22.61003 10.49817,-34.66584 1.37031,-12.05581 0.30224,-24.44999 -3.69914,-35.90466 -4.00137,-11.45466 -10.99038,-21.93569 -20.42159,-29.56933 -9.43122,-7.63364 -21.32719,-12.3223 -33.45792,-12.5788 -12.6017,-0.26646 -24.97069,4.17317 -35.70028,10.78755 -10.72958,6.61438 -19.99054,15.33707 -28.82397,24.32843 -8.83343,8.99135 -17.34698,18.33852 -26.95225,26.50019 -9.60527,8.16166 -20.44328,15.17258 -32.54771,18.68781 -14.52587,4.21843 -30.53913,3.09696 -44.33521,-3.10499 -13.79609,-6.20194 -25.264,-17.43445 -31.7507,-31.09896 z"
       id="path4851"
       inkscape:path-effect="#path-effect4853"
       inkscape:original-d="m 504.76177,-376.21766 c 0,0 31.70246,-102.80669 166.43792,-179.55565 134.73546,-76.74893 307.51382,-42.19508 307.51382,-42.19508 0,0 193.06639,47.92941 204.75299,201.224 15.3869,201.83549 -522.74805,308.486351 -485.21839,637.44014 29.19459,255.89556 -46.0699,-445.53316 -46.0699,-445.53316 0,0 -34.22106,-203.11951 52.69368,-217.48028 879.04361,-145.24277 191.39264,-192.672 -124.02421,80.30398 -313.61423,271.415911 -47.5537,30.91783 -76.08591,-34.20395 z"
       inkscape:connector-curvature="0"
       sodipodi:nodetypes="cscsscssc" />
    <path
       inkscape:transform-center-y="-1.7680322"
       inkscape:transform-center-x="-7.3356963"
       d="m 662.44746,-342.0027 -106.21642,-40.73878 -68.52171,140.59214 -34.374,-108.44356 -152.64195,34.08534 63.35275,-94.48812 -121.81969,-98.08842 113.37359,-9.38121 0.73528,-156.3996 78.02179,82.78995 122.73658,-96.93869 -16.082,112.61859 152.31472,35.51903 -98.07572,57.64313 z"
       inkscape:randomized="0"
       inkscape:rounded="0"
       inkscape:flatsided="false"
       sodipodi:arg2="0.81916847"
       sodipodi:arg1="0.60283831"
       sodipodi:r2="124.22799"
       sodipodi:r1="231.92426"
       sodipodi:cy="-473.49976"
       sodipodi:cx="471.40457"
       sodipodi:sides="7"
       id="path4858"
       style="opacity:1;fill:url(#radialGradient4860);fill-opacity:1;stroke:none;stroke-width:20;stroke-miterlimit:4;stroke-dasharray:none"
       sodipodi:type="star"
       transform="matrix(0.25963328,0.74571923,-0.74571923,0.25963328,74.235783,-612.01649)" />
    <path
       style="opacity:1;fill:#ffffff;fill-opacity:1;stroke:none;stroke-width:20;stroke-miterlimit:4;stroke-dasharray:none"
       id="path4866"
       d="m 552.55377,-442.88101 c 10.54368,-8.88882 21.3256,-17.49815 32.24571,-25.92211 27.80401,-20.89999 57.91381,-37.0405 88.66499,-53.80654 2.66453,-1.45274 17.43973,-5.97188 20.03817,-6.7947 21.03954,-8.03159 42.68919,-13.95077 64.78662,-18.15909 21.86858,-4.04215 43.91266,-7.5667 66.23197,-6.43643 4.29466,0.21748 8.56177,0.81336 12.84265,1.22005 4.07325,0.59542 8.15648,1.12635 12.21979,1.7863 7.53622,1.224 15.04143,2.632 22.55872,3.96739 6.47218,1.14974 14.59205,2.52337 20.93474,4.38404 3.54732,1.04064 6.98133,2.43448 10.472,3.65172 16.62435,6.81882 33.66658,13.313 48.90003,23.01676 6.67039,4.24907 14.86976,10.92513 21.12548,15.84031 11.04455,8.89243 21.22458,18.94933 29.42606,30.56272 3.8578,5.46266 7.4153,11.76555 10.8076,17.52676 1.4015,2.95428 3.0512,5.80315 4.2046,8.86285 3.9032,10.35434 5.7878,21.66325 7.8816,32.47548 2.8238,14.58132 1.6751,8.0674 3.9586,22.98824 2.3261,28.24595 4.3764,56.53615 5.1424,84.87121 -1.3836,22.69157 -2.5364,45.52626 -5.8795,68.04204 -2.1547,14.51144 -3.874,20.45948 -7.2456,34.80169 -2.9708,11.04326 -6.4631,25.10476 -10.5317,35.78697 -3.2605,8.56049 -7.2285,16.83494 -10.7525,25.29033 -3.66151,8.78492 -7.11471,17.65598 -10.80377,26.42934 -7.43799,17.689051 -15.17211,35.252221 -22.68109,52.911251 -5.0447,11.83846 -14.25176,33.87786 -19.97545,45.65166 C 943.3859,-6.2395487 939.27343,1.2673513 935.26195,8.8225493 924.95735,28.23018 914.33884,47.404173 903.11084,66.2887 c -11.28992,18.015958 -5.2855,9.437984 -17.94161,25.783926 0,0 -55.89637,23.775434 -55.89637,23.775434 l 0,0 c 14.4683,-16.454122 7.39479,-7.69219 21.08843,-26.391916 3.93286,-5.64403 8.0373,-11.172293 11.79858,-16.932081 22.88073,-35.038044 40.33885,-73.19465172 58.50138,-110.778942 11.21465,-25.69027 23.13431,-51.35691 31.68155,-78.107831 2.41108,-7.54614 4.00389,-15.33131 6.19225,-22.94503 13.54293,-47.11857 -2.20888,11.35744 10.09298,-35.07598 2.82568,-12.37872 5.1343,-21.46757 7.07741,-33.99998 3.39403,-21.88982 4.89101,-44.1246 4.36843,-66.26344 -0.9766,-27.83799 -1.69168,-55.75247 -6.48716,-83.27026 -3.48256,-20.94286 -6.95081,-42.30896 -16.16098,-61.6242 -3.26364,-5.95793 -5.9724,-11.33308 -9.96445,-16.86849 -7.95609,-11.03201 -18.05759,-20.452 -27.46586,-30.18669 -3.01205,-2.62365 -5.87708,-5.42631 -9.03614,-7.87095 -17.7506,-13.73628 -38.83877,-22.61727 -60.36847,-28.41665 -3.99262,-1.07684 -16.04747,-4.39187 -20.43396,-5.34284 -3.55258,-0.77018 -7.15539,-1.28839 -10.72294,-1.98583 -11.09062,-2.16817 -22.11479,-4.76523 -33.37325,-5.97443 -4.08109,-0.32692 -8.15175,-0.8336 -12.24327,-0.98078 -22.10034,-0.79501 -44.09675,3.15957 -65.61854,7.69806 -11.24792,2.82569 -22.59129,5.39613 -33.69196,8.77441 -7.11406,2.16503 -14.26247,4.70614 -21.2916,7.12316 -3.42038,1.17612 -6.84203,2.3486 -10.26304,3.52292 -3.58937,1.33407 -7.22001,2.56196 -10.76809,4.00223 -19.38687,7.86961 -46.99167,25.39608 37.54289,-23.35644 2.80391,-1.61707 -5.51155,3.39864 -8.19876,5.20301 -2.70567,1.81674 -5.30982,3.78036 -7.97452,5.65669 -2.55301,1.79767 -5.11901,3.57683 -7.67853,5.36524 -9.3771,7.1945 -18.53561,14.62602 -27.04282,22.84445 0,0 -66.27865,27.45352 -66.27865,27.45352 z"
       inkscape:connector-curvature="0" />
    <path
       style="opacity:1;fill:#ffffff;fill-opacity:1;stroke:none;stroke-width:20;stroke-miterlimit:4;stroke-dasharray:none"
       id="path4878"
       d="m 629.13166,-455.98698 c 17.74183,-5.19293 35.92015,-8.52275 54.0921,-11.78456 15.28223,-1.47093 30.67014,-4.31977 46.08579,-3.93972 2.52181,0.0622 5.03308,0.34879 7.54961,0.52319 13.89881,0.80768 26.78191,6.00431 38.54566,13.1873 6.6814,6.50054 11.95584,14.8013 14.87305,23.70536 1.74567,5.3282 2.33529,10.19936 3.25225,15.70895 2.99601,17.01057 0.96128,31.97718 -4.68175,48.29679 -1.40971,4.07685 -3.17611,8.0215 -4.76419,12.03225 -2.31189,4.41388 -4.42131,8.93989 -6.9357,13.24164 -2.91647,4.98968 -6.17487,9.77209 -9.34169,14.60675 -16.53775,25.24756 -34.98644,48.9654 -53.90063,72.45778 -12.77753,15.0985 -18.71036,22.89421 -33.01961,36.64494 -6.15409,5.91389 -12.31114,11.89082 -19.15169,16.99509 -8.0707,6.02218 -16.73073,11.23823 -25.446,16.28272 -47.04693,27.23129 -43.61061,24.90626 -81.66939,42.72707 -22.39976,10.93549 -45.56498,20.00572 -68.93638,28.58305 0,0 28.29895,-22.10641 28.29895,-22.10641 l 0,0 c 22.38208,-8.03999 44.64972,-16.39149 66.09914,-26.74254 8.93209,-4.21474 17.66611,-8.87774 26.7963,-12.64419 0.70894,-0.29247 -1.74169,2.41399 -1.07572,2.03372 8.24538,-4.70818 16.46336,-9.54183 24.10174,-15.18174 6.76263,-4.99328 12.8691,-10.83428 18.96809,-16.61947 15.20801,-14.42555 19.31436,-20.22092 32.72924,-36.18461 14.3675,-17.79646 28.63827,-35.60976 41.31391,-54.68064 3.53484,-5.31828 6.77702,-10.82541 10.14553,-16.25057 10.72817,-17.27824 6.39197,-9.60605 14.97985,-26.48527 3.46124,-8.64923 5.87892,-13.6606 7.93335,-22.70723 2.60807,-11.48451 2.34083,-23.16263 0.72569,-34.74573 -2.33163,-13.45225 -5.9698,-26.95674 -17.19651,-35.8004 -11.15112,-6.95179 -23.37145,-11.49894 -36.64354,-11.90349 -17.44657,-0.48658 -34.88982,0.54608 -52.12391,3.44537 -19.37098,3.33722 -38.68525,7.29573 -57.0749,14.42805 0,0 35.47136,-27.12345 35.47136,-27.12345 z"
       inkscape:connector-curvature="0" />
    <path
       style="opacity:1;fill:#00ff00;fill-opacity:1;stroke:none;stroke-width:20;stroke-miterlimit:4;stroke-dasharray:none"
       id="path4886"
       d="m 635.00901,-468.17669 c 9.59745,-3.64368 19.60856,-5.96516 29.69834,-7.78543 20.14653,-2.83001 40.4281,-4.53725 60.75544,-5.22692 19.60679,-0.81906 39.22216,-0.39926 58.83705,-0.48273 16.36987,-0.10214 32.7618,-0.55868 49.08985,0.84018 9.54958,1.05601 18.23803,5.23892 26.203,10.40491 5.23325,4.12539 10.4198,8.38532 15.35014,12.87673 7.31131,6.43726 13.70459,13.6679 19.00928,21.8243 0.88396,1.56079 1.72375,3.14744 2.65189,4.68235 3.26201,5.39462 2.40367,3.19166 5.51906,8.97758 2.64503,4.91235 4.56532,9.97443 6.32693,15.24945 0.57815,2.42475 1.898,7.5073 2.08472,10.04984 0.49587,6.75245 -0.30257,14.37984 -1.73857,20.96849 -0.66749,3.06261 -1.66793,6.04307 -2.50188,9.06461 -6.8571,22.45216 -22.47354,39.91701 -38.07017,56.78705 -19.92542,19.30259 -42.35862,35.78142 -64.41329,52.53034 0,0 -35.29447,14.04531 -35.29447,14.04531 l 0,0 c 21.62037,-16.16717 43.52513,-32.2387 62.84521,-51.16555 15.52776,-16.35833 30.66723,-32.44569 37.68296,-54.42332 0.71028,-2.77513 1.57316,-5.51562 2.13084,-8.32538 1.89576,-9.55147 2.12393,-19.44413 -0.34181,-28.89331 -1.23922,-4.18413 -1.50909,-5.58416 -3.30839,-9.62881 -2.87075,-6.45314 -7.26172,-11.9906 -10.54579,-18.21488 -5.41703,-7.65194 -11.40533,-14.78849 -18.90392,-20.51897 -5.11916,-4.03447 -9.98354,-8.34806 -15.0783,-12.39692 -7.36732,-4.81225 -15.35886,-8.28625 -24.19953,-9.24876 -15.79004,-1.59678 -31.64156,-1.39258 -47.49584,-1.51062 -19.60022,-0.0836 -39.20186,0.23007 -58.7966,0.65523 -20.43638,0.942 -40.96662,2.02223 -61.03729,6.27437 -10.7589,2.47443 -21.40081,5.48926 -31.46152,10.11562 0,0 35.00266,-27.52476 35.00266,-27.52476 z"
       inkscape:connector-curvature="0" />
    <path
       style="opacity:1;fill:#ffffff;fill-opacity:1;stroke:none;stroke-width:20;stroke-miterlimit:4;stroke-dasharray:none"
       id="path4918"
       d="m 835.71455,233.52941 c 9.00059,0.8285 17.99417,0.61799 26.93483,-0.65961 13.82081,-1.85556 27.54197,-4.33403 41.36791,-6.14162 15.49856,-1.2181 30.65275,-4.74955 45.74685,-8.32229 13.82205,-2.35636 26.63349,-7.98293 39.40702,-13.51554 1.76925,-0.85635 3.55829,-1.67279 5.30757,-2.56903 2.8253,-1.44743 6.20557,-3.51149 9.10797,-4.83791 4.9846,-2.27789 10.2945,-3.86567 15.4708,-5.63427 10.3494,-3.13713 17.7119,-10.93425 25.1719,-18.34481 7.4777,-7.32775 15.333,-14.33221 22.3876,-22.08255 2.9925,-3.28765 8.6944,-10.40354 11.5247,-13.88758 8.2366,-10.0378 14.9945,-21.14894 22.1228,-31.96558 11.0561,-16.776653 0.7624,-0.37631 11.8831,-18.431438 9.3463,-15.983931 18.5739,-32.009062 28.7168,-47.506949 13.8904,-23.902919 -9.0077,15.536798 -11.8808,20.044742 -1.4707,2.307304 2.3587,-4.939692 3.4298,-7.45749 1.5905,-3.738982 3.0746,-7.522685 4.5525,-11.307581 4.883,-12.505219 4.7574,-12.52608 9.1394,-25.138221 8.3554,-23.9834017 14.6024,-48.571562 19.7833,-73.408472 5.3255,-28.94579 6.4312,-58.461461 6.4081,-87.827141 0.1374,-26.45596 -2.7688,-52.79397 -6.2848,-78.9756 -1.702,-13.7923 -4.6287,-27.33449 -8.1996,-40.74505 0,0 23.3424,-33.90314 23.3424,-33.90314 l 0,0 c 3.483,13.81395 6.031,27.81701 8.0218,41.92669 3.0141,26.6717 6.3042,53.43171 5.9176,80.32067 -0.01,3.86254 -0.01,26.31646 -0.1174,30.12288 -0.5611,19.13678 -2.7889,38.20487 -4.9315,57.210501 -5.0756,25.08888 -11.4774,49.86469 -19.6934,74.12482 -10.8098,31.938287 2.2758,-6.43676 -8.6222,24.6393273 -1.8395,5.2457767 -4.052,13.0568857 -6.8385,18.1646057 -7.9216,14.5216 -16.2477,28.819158 -24.4639,43.176166 -1.4684,2.565963 -3.0589,5.060094 -4.5884,7.590137 -9.7516,15.246021 -18.7845,30.923813 -28.193,46.380783 -10.9312,17.55385 -22.1148,35.09546 -34.9632,51.31401 -10.8314,12.89672 -22.4014,25.09869 -34.6675,36.64587 -4.6563,4.48833 -9.304,9.257 -14.6892,12.89868 -3.7604,2.54293 -8.2254,3.6427 -12.4256,5.18155 -3.34538,1.15958 -6.79815,2.28973 -10.05514,3.68867 -6.55675,2.81618 -12.68754,6.57268 -19.37803,9.10133 -12.89371,5.41382 -25.98621,10.22756 -39.83102,12.61295 -15.33026,3.24374 -30.60711,7.1432 -46.25575,8.49468 -13.90075,1.80239 -27.69921,4.25345 -41.53114,6.50408 -9.3889,1.17091 -18.83298,1.59811 -28.27795,2.05214 0,0 20.14328,-39.53341 20.14328,-39.53341 z"
       inkscape:connector-curvature="0" />
    <path
       style="opacity:1;fill:#ffffff;fill-opacity:1;stroke:none;stroke-width:20;stroke-miterlimit:4;stroke-dasharray:none"
       id="path4930"
       d="m 841.17142,-619.94569 c 7.5823,-1.53539 15.30999,-2.39874 23.05224,-2.41458 49.02884,-0.10033 34.16309,-1.04738 59.11933,0.92282 13.48599,0.58597 26.53944,3.59017 39.22669,8.0275 12.73439,5.28208 25.06081,11.3983 37.09904,18.10066 4.86948,3.32818 10.05768,6.61041 14.37318,10.67709 1.6508,1.55558 3.0311,3.37602 4.5962,5.01784 1.9972,2.09517 8.0052,8.03172 10.0486,10.06059 6.3147,6.76217 12.8882,13.40498 18.308,20.93703 2.3716,3.29572 7.5624,11.45837 9.6617,14.71765 4.7281,6.51735 8.6017,13.64298 13.3671,20.13332 1.3241,1.8033 2.8559,3.44568 4.2229,5.21656 4.8268,6.25214 5.3128,7.23542 9.864,14.02262 6.0054,9.05078 12.4717,17.83485 17.8997,27.25824 1.2975,2.25238 2.7065,4.45973 3.7217,6.85261 1.2709,2.99542 2.0744,6.16836 3.1115,9.25254 4.4966,13.78068 8.8227,27.72696 12.1094,41.85986 2.2372,9.62127 3.9888,19.34909 5.9851,29.02329 1.5569,11.19045 4.3678,22.16331 6.1037,33.32085 2.1209,13.63205 3.4753,27.37347 5.4227,41.03138 1.8258,12.80465 3.7964,25.58837 5.6235,38.39282 0.4119,6.63004 0.8754,13.25706 1.2353,19.89011 0.3521,6.48814 0.7771,12.97573 0.9001,19.47226 0.4391,23.18465 -1.3677,46.41274 -3.9081,69.43268 -5.217,25.76955 -12.3031,51.10388 -20.8956,75.946521 -2.0861,6.03118 -4.1493,12.07846 -6.5827,17.97804 -2.6292,6.37402 -5.7293,12.54345 -8.5938,18.81518 -5.1866,10.25258 -13.1771,26.94849 -19.7928,36.5737403 -4.5729,6.65321 -9.8046,12.83465 -14.9692,19.039811 -16.544,19.8773687 -34.7582,37.0926027 -53.6549,54.6518407 -19.60868,17.172554 -40.44837,32.822941 -62.26396,47.072487 -7.39986,4.83346 -14.67099,9.92097 -22.47752,14.06563 -15.67579,8.32262 -57.02687,26.0332 -72.4776,32.79677 -37.24816,16.09945 -74.47984,32.4763 -112.98539,45.41647 -33.08178,11.11746 -66.87583,19.57272 -100.77534,27.71333 -20.45159,4.30296 -41.08861,7.73221 -61.85097,10.12593 -2.22661,0.25672 -17.73558,1.8303 -21.24538,1.85776 -16.18552,0.1266 -32.37172,-0.13616 -48.55759,-0.20424 -2.09557,-0.25119 -4.19117,-0.50239 -6.28675,-0.7536 0,0 42.10393,-6.19181 42.10393,-6.19181 l 0,0 c 1.84517,0.18668 3.69034,0.37336 5.5355,0.56003 -11.09358,0.12944 -22.18645,0.36318 -33.28076,0.38831 -3.47238,0.008 6.94344,-0.16748 10.41171,-0.33653 27.33963,-1.33263 54.54803,-4.80125 81.4614,-9.74858 27.39849,-5.81997 39.01895,-7.87826 66.73561,-15.58168 51.8715,-14.41686 102.04335,-34.16437 151.00408,-56.44145 12.05916,-5.5954 24.27321,-10.86844 36.1775,-16.78621 41.28668,-20.52406 79.67746,-46.625856 114.50102,-76.795309 6.26069,-5.690148 12.68049,-11.209967 18.78201,-17.070443 27.6332,-26.541361 51.948,-56.604247 67.4972,-91.873207 5.9924,-13.9263 9.8433,-22.2826 14.9592,-36.44213 8.806,-24.372351 15.6859,-49.542931 19.0713,-75.265841 0.7515,-5.15846 1.6504,-10.29758 2.2545,-15.4754 3.5755,-30.65217 4.3906,-61.66255 0.8083,-92.35287 -2.2756,-19.6611 -4.3802,-39.45048 -7.6802,-58.97294 -3.0273,-17.90899 -7.4199,-35.57168 -10.8538,-53.40104 -5.9641,-24.71179 -1.0134,-5.41998 -7.7751,-28.80736 -4.0108,-13.87191 -7.1985,-28.02098 -12.7629,-41.40026 -1.2896,-2.88467 -2.4534,-5.82893 -3.8689,-8.65396 -5.929,-11.83334 -14.0052,-22.54347 -21.0365,-33.7054 -1.7985,-2.43436 -3.5277,-4.92145 -5.3955,-7.30309 -5.9861,-7.63303 -4.5019,-4.70691 -9.449,-12.04927 -3.6663,-5.44173 -4.2734,-7.10553 -7.7778,-12.73822 -1.5471,-2.48654 -3.1822,-4.91723 -4.7734,-7.37586 -8.6461,-12.34779 -18.13161,-24.09222 -28.79353,-34.77402 -9.04697,-8.98065 -18.05517,-18.13691 -29.17967,-24.58711 -12.01088,-6.73593 -24.44268,-12.84889 -37.50867,-17.26819 -12.17145,-3.97698 -24.67737,-6.58358 -37.50832,-7.16939 -18.822,-1.0844 -15.08892,-0.67936 22.93913,-0.69133 2.45745,-7.8e-4 -4.91668,0.0303 -7.37056,0.16283 -2.78293,0.15023 -7.07831,0.69947 -9.94164,1.13947 -1.05776,0.16254 -2.10803,0.37064 -3.16205,0.55596 0,0 -43.85817,-5.84911 -43.85817,-5.84911 z"
       inkscape:connector-curvature="0" />
    <path
       style="opacity:1;fill:#00ff00;fill-opacity:1;stroke:none;stroke-width:20;stroke-miterlimit:4;stroke-dasharray:none"
       id="path4936"
       d="m 938.4499,-413.7255 c 6.5838,26.49354 13.11327,53.12951 14.94517,80.47163 0.57915,8.64428 0.48133,17.32065 0.72199,25.98096 1.14203,31.39202 -3.40141,61.73295 -11.11765,91.97302 -2.03133,7.96083 -4.07805,15.93173 -6.67018,23.72802 -6.22064,18.7098 -10.22795,25.7347 -18.60764,43.27254 -16.74151,35.26253 -41.29523,65.520041 -66.48889,94.969981 -8.98949,11.06195 -20.11149,19.90681 -31.14788,28.77621 0,0 -1.1537,-17.20896 -1.1537,-17.20896 l 0,0 c 11.00884,-8.57395 21.86613,-17.34038 30.88163,-28.09973 7.5328,-8.58058 15.18419,-17.11256 22.31807,-26.03365 16.84122,-21.060341 31.83277,-43.566761 43.85978,-67.735801 8.66211,-18.05238 11.99227,-23.55803 18.38622,-42.91145 9.20873,-27.8732 14.36845,-56.89476 17.4514,-86.02033 -0.22515,-8.4737 -0.10135,-16.96388 -0.67543,-25.4211 -1.78326,-26.27026 -8.15584,-51.83651 -14.97736,-77.15705 0,0 2.27447,-18.58429 2.27447,-18.58429 z"
       inkscape:connector-curvature="0" />
    <path
       style="opacity:1;fill:#808080;fill-opacity:1;stroke:none;stroke-width:20;stroke-miterlimit:4;stroke-dasharray:none"
       id="path4938"
       d="m 925.42644,-336.44839 c -0.20135,7.87267 0.0285,15.76823 -0.60402,23.61803 -0.22915,2.84343 -1.34543,5.54469 -1.97041,8.32804 -0.88259,3.93065 -1.36183,7.96438 -2.55212,11.81304 -6.50505,21.0334 -17.62179,39.98715 -28.24243,59.10582 -10.58598,16.2832 -14.63923,24.12536 -27.83295,38.25683 -15.83573,16.9613 -36.87356,32.92159 -57.55958,43.46826 -7.48712,3.8173 -15.45147,6.61563 -23.17722,9.92344 -16.19594,5.5425 -27.48733,9.91852 -44.06687,13.68477 -19.32984,4.39101 -39.23724,6.42223 -58.90451,8.60037 0,0 -0.15624,-16.44767 -0.15624,-16.44767 l 0,0 c 14.34613,-1.14404 22.38629,-1.54752 36.96467,-3.78202 22.39262,-3.43224 44.35833,-8.95404 65.54781,-17.02972 7.65593,-3.3878 15.52981,-6.32059 22.96779,-10.16335 27.96162,-14.44611 52.92347,-35.69173 71.432,-61.15029 4.75833,-6.54509 8.78184,-13.59408 13.17275,-20.39112 11.03636,-20.33178 21.28743,-38.76632 27.49435,-61.23791 1.12665,-4.07897 1.66865,-8.29737 2.46885,-12.45272 0.57844,-3.00369 0.51284,-11.85674 1.66698,-9.02395 1.75294,4.30249 0.22224,9.28912 0.33336,13.93367 0,0 3.01779,-19.05352 3.01779,-19.05352 z"
       inkscape:connector-curvature="0" />
    <path
       style="opacity:1;fill:#808080;fill-opacity:1;stroke:none;stroke-width:20;stroke-miterlimit:4;stroke-dasharray:none"
       id="path4944"
       d="m 1171.8611,-389.73188 c 3.6701,10.91502 8.509,21.43894 12.8536,32.10575 6.5972,16.71917 13.896,33.18831 19.9241,50.12939 4.3198,12.14013 5.1919,15.89891 8.7546,28.29286 6.2112,25.37759 11.5257,50.97567 15.4412,76.81161 1.9579,12.91923 3.1557,23.29686 4.7598,36.245 1.656,21.08295 3.6629,42.197 4.1857,63.35215 0.3811,15.421701 -0.1506,38.701191 -1.0964,53.172791 -0.4519,6.91576 -1.4961,13.78003 -2.2442,20.67005 -3.6052,24.6640003 -7.9904,49.331704 -14.6935,73.370344 -3.6844,13.212745 -5.8276,18.437521 -10.4448,31.264851 -12.7283,25.510914 -30.2202,48.284604 -50.3181,68.416054 -5.1996,5.20827 -10.3842,10.4681 -16.0777,15.13146 -6.4581,5.2897 -13.5339,9.77692 -20.3007,14.66539 -28.254,18.70811 -56.9775,36.82556 -86.8775,52.81424 -6.6237,3.5419 -13.2217,7.15778 -20.0638,10.2569 -7.5196,3.40603 -15.3181,6.15915 -22.97715,9.23872 -26.98428,9.98505 -54.71989,18.36446 -83.01971,23.74435 -9.5577,1.81694 -20.05254,3.07765 -29.73517,4.35384 -10.24973,1.31401 -20.54692,2.12488 -30.852,2.82994 0,0 -0.0681,-12.22094 -0.0681,-12.22094 l 0,0 c 10.2754,-0.44403 20.55089,-0.93624 30.79018,-1.94931 12.92593,-1.27201 16.2823,-1.40458 29.65251,-3.61966 28.28752,-4.68649 56.08861,-12.19116 82.86821,-22.44603 7.62845,-3.22049 15.35903,-6.20889 22.88523,-9.66147 6.7901,-3.11491 13.419,-6.57355 20.0414,-10.03072 29.9914,-15.65685 58.8314,-33.48379 86.7675,-52.54306 6.716,-5.07426 13.6987,-9.81356 20.1478,-15.22279 5.6238,-4.71693 10.8422,-9.90545 16.0175,-15.11061 20.2036,-20.32051 37.7429,-43.340834 49.789,-69.448333 4.522,-12.590105 6.7476,-18.080167 10.367,-31.028634 6.663,-23.837296 11.0836,-48.288542 14.6353,-72.755652 0.7347,-6.85534 1.4957,-13.70792 2.2044,-20.56601 0.3946,-3.8189 0.9813,-7.62731 1.105,-11.46453 0.9133,-28.30939 -1.9324,-56.615791 -4.2085,-84.788201 -1.3834,-11.33837 -3.0061,-25.23705 -4.6799,-36.51557 -3.7931,-25.55958 -8.9415,-50.91081 -15.4355,-75.92146 -3.3464,-11.74521 -4.5724,-16.76233 -8.6615,-28.2666 -5.9249,-16.66862 -13.2102,-32.83127 -20.0046,-49.15117 -4.3799,-10.21905 -8.8445,-20.40321 -13.3065,-30.58547 0,0 1.8753,-13.56947 1.8753,-13.56947 z"
       inkscape:connector-curvature="0" />
    <path
       style="opacity:1;fill:#00ff00;fill-opacity:1;stroke:none;stroke-width:20;stroke-miterlimit:4;stroke-dasharray:none"
       id="path4946"
       d="m 1129.6799,-38.136049 c -0.4395,0.96879 -0.92,1.92011 -1.3191,2.90637 -3.3543,8.29196 -5.7716,15.47757 -9.5391,23.83488 -5.1787,11.48802028 -12.4162,25.29473 -18.9342,35.919617 -4.1736,6.803283 -8.8099,13.311559 -13.215,19.967331 -4.9647,6.661549 -9.6012,13.580862 -14.8943,19.984646 -12.2719,14.847023 -24.0621,26.132927 -38.4512,38.961695 -14.0658,12.5404 -27.7356,23.767 -43.39244,34.28274 -7.5339,5.06008 -15.48265,9.47342 -23.22397,14.21014 -7.82508,4.07328 -15.46692,8.51977 -23.47522,12.21984 -8.81672,4.07358 -17.88301,7.59362 -26.94894,11.07753 -23.46659,9.0179 -47.4523,16.38462 -71.55155,23.46708 0,0 -0.26806,-9.97255 -0.26806,-9.97255 l 0,0 c 6.80756,-1.74874 13.65455,-3.35053 20.42264,-5.24623 35.10672,-9.8332 69.50403,-22.44446 101.33381,-40.41129 7.71743,-4.72225 15.63808,-9.12739 23.15227,-14.16674 15.30786,-10.26606 29.59676,-21.83315 43.29286,-34.143973 14.5288,-13.059329 25.9486,-24.380119 38.2444,-39.52272 5.2548,-6.471343 9.8824,-13.427709 14.8235,-20.141565 4.3679,-6.784852 8.9823,-13.417153 13.1034,-20.354557 6.3138,-10.6281437 13.8069,-25.410734 18.6751,-36.971344 4.2966,-10.20282 5.9011,-16.21549 9.2866,-26.13586 0.3859,-1.13066 0.8353,-2.23864 1.253,-3.35796 0,0 1.6255,13.59292 1.6255,13.59292 z"
       inkscape:connector-curvature="0" />
    <path
       style="opacity:1;fill:#808080;fill-opacity:1;stroke:none;stroke-width:20;stroke-miterlimit:4;stroke-dasharray:none"
       id="path4976"
       d="m 686.55868,-553.72995 c 6.39925,-4.27794 12.95177,-8.29434 19.68991,-12.02351 1.62242,-0.87336 3.22957,-1.77571 4.86725,-2.62009 14.85989,-7.66172 -4.84819,2.75295 9.89093,-4.97831 4.80127,-2.51846 9.56628,-5.01645 14.46885,-7.33546 9.33184,-4.21622 19.223,-6.9799 29.05643,-9.74394 8.45075,-2.19289 16.83535,-4.79033 25.4511,-6.29209 2.04895,-0.35714 11.40807,-1.61971 13.41739,-1.89493 12.50969,-1.86333 25.08452,-2.94804 37.71442,-3.46661 9.13833,-0.26624 18.32123,-0.44068 27.45274,0.11541 2.34887,0.14303 4.66751,0.60721 6.99347,0.96434 6.42933,0.9872 7.90016,1.34689 14.16225,2.58847 12.53762,2.52802 24.11443,8.11338 35.80927,13.08294 9.98146,4.5415 19.85689,9.30692 29.71581,14.10651 4.95064,2.71647 10.6639,3.97646 15.30203,7.28295 1.18555,0.84514 5.56473,4.69335 6.55033,5.54833 4.31459,3.80824 8.86259,7.39877 12.78282,11.63254 2.02687,2.18884 3.91401,4.503 5.88637,6.74089 3.08857,3.63497 6.56525,6.99341 9.31795,10.90717 1.2993,1.84716 2.3079,3.64381 3.4519,5.58383 1.8965,3.47097 1.0207,1.74142 2.6396,5.18241 0,0 -9.2817,0.4052 -9.2817,0.4052 l 0,0 c -1.5597,-3.37618 -0.712,-1.67478 -2.55688,-5.0972 -3.50169,-5.94354 -7.86166,-11.24322 -12.50935,-16.33242 -5.80043,-6.51893 -11.77236,-12.84728 -18.66538,-18.24745 -1.80396,-1.50929 -4.70722,-4.02531 -6.70659,-5.37764 -4.63007,-3.13166 -10.14541,-4.58466 -15.02679,-7.23908 -9.80927,-4.77418 -19.5881,-9.61626 -29.54208,-14.0851 -11.5845,-5.04661 -23.16629,-10.38812 -35.62299,-12.9244 -6.01217,-1.20101 -7.89472,-1.66166 -14.10208,-2.53814 -2.40314,-0.33933 -4.88209,-0.24868 -7.22927,-0.86592 -0.90155,-0.23707 3.7085,-0.22069 2.78004,-0.30411 -2.14818,-0.19301 -11.20363,0.1192 -13.15905,0.1722 -12.62094,0.5163 -25.19093,1.57654 -37.69857,3.38653 -1.15426,0.15868 -12.04745,1.64604 -13.29412,1.85732 -8.62715,1.46209 -17.05238,3.94669 -25.48791,6.21607 -9.71026,2.88492 -19.50712,5.59953 -28.82091,9.63529 -4.66845,2.15876 -5.02044,2.2545 -9.63708,4.66545 -7.25515,3.78884 -2.488,1.50089 -9.79585,5.16878 -1.64725,0.82679 -3.33063,1.58098 -4.96976,2.42375 -1.6258,0.83591 -3.21523,1.74079 -4.82284,2.61117 -6.49815,3.6822 -12.98126,7.44173 -18.85238,12.08352 0,0 -9.61928,-0.99467 -9.61928,-0.99467 z"
       inkscape:connector-curvature="0" />
    <path
       style="opacity:1;fill:#00ff00;fill-opacity:1;stroke:none;stroke-width:35;stroke-miterlimit:4;stroke-dasharray:none"
       id="path5044"
       d="m 885.89775,-570.11027 c 14.93285,3.68604 27.8404,11.99954 40.96715,19.65727 22.02142,13.41709 42.23841,29.73465 60.92884,47.45112 7.17926,7.36863 14.14126,15.09467 20.20816,23.42511 5.3038,7.28253 9.636,15.28503 14.1393,23.06771 9.2884,15.93585 16.0452,33.2838 22.406,50.56613 5.3457,14.84709 9.4301,30.11552 12.9057,45.49858 0.552,4.14269 1.0845,8.28802 1.656,12.42806 2.0185,14.62069 3.9063,29.18586 4.9987,43.91479 0.9399,12.67277 0.9691,17.27212 1.3949,29.90342 -1.4376,30.08434 -1.0119,60.76114 -6.3793,90.51333 -1.332,7.38223 -3.1756,14.66285 -4.7634,21.99428 -8.6625,40.02506 -20.6616,79.380591 -36.0222,117.356501 -2.8024,6.92834 -5.9422,13.71541 -8.9132,20.57312 -11.90218,24.8533303 -23.89659,49.942215 -39.24538,72.918508 -8.47317,12.683943 -14.46262,19.503041 -24.03724,31.291081 -13.6254,15.578185 -29.10782,29.57992 -46.37792,41.04532 -7.1385,4.73915 -14.61859,8.94447 -22.01186,13.27544 -18.68728,10.94702 -23.64507,13.3882 -42.2905,23.38308 -21.283,10.56661 -42.29118,22.29441 -65.2998,28.7128 -3.88362,1.0766 -7.81964,1.92412 -11.77326,2.69113 0,0 -22.56438,-3.17676 -22.56438,-3.17676 l 0,0 c 4.16407,-0.64377 8.30968,-1.38792 12.39741,-2.42731 24.24796,-5.69104 46.54993,-17.20128 68.93365,-27.79439 39.83327,-20.69316 80.2834,-42.28532 109.80958,-77.025488 9.96051,-12.108984 15.26968,-17.988313 24.08716,-31.033643 15.47619,-22.896775 27.71929,-47.85643772 39.80472,-72.632478 3.0713,-6.82251 6.33439,-13.56189 9.21392,-20.46753 15.7094,-37.67413 27.8142,-77.003301 35.6907,-117.041591 6.2104,-37.27054 11.1199,-74.1626 9.4729,-112.0923 -0.8231,-28.807 -2.7639,-57.70365 -9.5322,-85.8186 -3.5571,-15.26026 -7.6611,-30.41503 -12.7563,-45.23863 -6.1535,-17.28188 -12.8988,-34.39018 -22.3396,-50.19212 -9.45589,-16.55298 -19.86821,-32.52675 -33.59882,-45.93005 -18.5646,-17.74641 -38.76583,-33.95326 -60.9725,-46.94618 -5.25415,-2.98204 -14.32871,-8.25609 -19.87017,-10.93174 -6.60661,-3.18996 -13.31429,-5.01196 -20.23244,-7.24886 -1.03142,-0.33349 -2.03784,-0.7398 -3.05675,-1.10971 0,0 23.02243,-2.5594 23.02243,-2.5594 z"
       inkscape:connector-curvature="0" />
    <path
       style="opacity:1;fill:#00ff00;fill-opacity:1;stroke:none;stroke-width:35;stroke-miterlimit:4;stroke-dasharray:none"
       id="path5052"
       d="m 840.89817,-222.42573 c 9.17644,2.611 18.24356,-0.30953 26.94928,-3.22632 10.5726,-4.35874 20.64812,-10.1548 29.19453,-17.81 3.83366,-3.43388 6.1644,-6.18295 9.57606,-9.94199 7.78165,-7.93876 13.34321,-17.56132 17.64784,-27.73807 2.24576,-8.28176 2.77809,-16.88145 3.93529,-25.35263 0,0 3.14372,21.66449 3.14372,21.66449 l 0,0 c -1.08706,8.72805 -1.71127,17.6156 -4.49633,26.01782 -4.71337,10.05787 -10.48432,19.54992 -18.42812,27.4192 -3.5863,3.69417 -5.91674,6.26176 -9.91295,9.64132 -8.89966,7.5264 -19.26761,13.14245 -29.93065,17.73257 -9.5868,3.50282 -17.953,6.69985 -28.24935,4.88388 0,0 0.57068,-23.29027 0.57068,-23.29027 z"
       inkscape:connector-curvature="0" />
  </g>
  <g
     inkscape:groupmode="layer"
     id="layer5"
     inkscape:label="Ball"
     style="display:inline;opacity:1">
    <circle
       style="opacity:1;fill:#4d4d4d;fill-opacity:1;stroke:none;stroke-width:20;stroke-miterlimit:4;stroke-dasharray:none"
       id="path4856"
       cx="667.40961"
       cy="32.639793"
       r="287.80487" />
    <ellipse
       cy="58.061043"
       cx="660.14624"
       id="circle5060"
       style="opacity:1;fill:#333333;fill-opacity:1;stroke:none;stroke-width:20;stroke-miterlimit:4;stroke-dasharray:none"
       rx="258.75201"
       ry="251.4888" />
    <ellipse
       ry="265.46414"
       rx="249.67302"
       style="opacity:1;fill:#4d4d4d;fill-opacity:1;stroke:none;stroke-width:20;stroke-miterlimit:4;stroke-dasharray:none"
       id="ellipse5062"
       cx="643.80402"
       cy="33.547691" />
    <ellipse
       ry="111.70512"
       rx="83.457863"
       cy="-36.51725"
       cx="576.10303"
       id="ellipse5000"
       style="opacity:1;fill:#333333;fill-opacity:1;stroke:none;stroke-width:20;stroke-miterlimit:4;stroke-dasharray:none"
       transform="matrix(0.96997775,0.24319366,-0.24319366,0.96997775,0,0)" />
    <path
       style="opacity:1;fill:none;fill-opacity:1;stroke:#333333;stroke-width:26.08815384;stroke-miterlimit:4;stroke-dasharray:none"
       id="path5004"
       transform="matrix(-0.78923652,0.61408934,-0.28098634,-0.95971177,0,0)"
       sodipodi:type="arc"
       sodipodi:cx="-741.39777"
       sodipodi:cy="-618.92706"
       sodipodi:rx="269.65555"
       sodipodi:ry="350.37625"
       sodipodi:start="0"
       sodipodi:end="2.3561945"
       d="m -471.74222,-618.92706 a 269.65555,350.37625 0 0 1 -166.46284,323.70544 269.65555,350.37625 0 0 1 -293.86797,-75.95202"
       sodipodi:open="true" />
    <ellipse
       style="opacity:1;fill:#00ff00;fill-opacity:1;stroke:none;stroke-width:20;stroke-miterlimit:4;stroke-dasharray:none"
       id="path4998"
       cx="582.73596"
       cy="107.43139"
       rx="83.457863"
       ry="87.309769" />
    <path
       d="m -473.53085,-620.55573 a 275.97879,347.66547 0 0 1 -155.64024,312.87318 275.97879,347.66547 0 0 1 -291.37183,-40.02101"
       sodipodi:end="2.2391993"
       sodipodi:start="0"
       sodipodi:ry="347.66547"
       sodipodi:rx="275.97879"
       sodipodi:cy="-620.55573"
       sodipodi:cx="-749.50964"
       sodipodi:type="arc"
       transform="matrix(-0.80548811,0.59261193,-0.2957853,-0.95525445,0,0)"
       id="path5006"
       style="opacity:1;fill:none;fill-opacity:1;stroke:#00ff00;stroke-width:26.28996468;stroke-miterlimit:4;stroke-dasharray:none"
       sodipodi:open="true" />
    <ellipse
       ry="49.108044"
       rx="46.941513"
       cy="104.50394"
       cx="579.80859"
       id="ellipse5012"
       style="opacity:1;fill:#00a700;fill-opacity:1;stroke:none;stroke-width:20;stroke-miterlimit:4;stroke-dasharray:none" />
    <ellipse
       style="opacity:1;fill:#00ff00;fill-opacity:1;stroke:none;stroke-width:20;stroke-miterlimit:4;stroke-dasharray:none"
       id="ellipse5014"
       cx="572.74915"
       cy="100.16817"
       rx="41.293831"
       ry="43.199707" />
    <ellipse
       ry="29.783541"
       rx="31.707451"
       cy="100.16817"
       cx="560.94647"
       id="ellipse5010"
       style="opacity:1;fill:#8cff8c;fill-opacity:1;stroke:none;stroke-width:20;stroke-miterlimit:4;stroke-dasharray:none" />
    <circle
       r="37.223976"
       cy="-90.834846"
       cx="465.85538"
       id="circle5054"
       style="opacity:1;fill:#cccccc;fill-opacity:1;stroke:none;stroke-width:20;stroke-miterlimit:4;stroke-dasharray:none" />
    <circle
       style="opacity:1;fill:#cccccc;fill-opacity:1;stroke:none;stroke-width:20;stroke-miterlimit:4;stroke-dasharray:none"
       id="circle5056"
       cx="434.98669"
       cy="-16.386894"
       r="17.250135" />
    <circle
       r="17.250135"
       cy="-96.282249"
       cx="454.96054"
       id="circle5058"
       style="opacity:1;fill:#f9f9f9;fill-opacity:1;stroke:none;stroke-width:20;stroke-miterlimit:4;stroke-dasharray:none" />
  </g>
</svg>
